<svg xmlns="http://www.w3.org/2000/svg" id="svg0.6916326979805683" viewBox="0 0 1024 480"><path d="M0 0 C337.92 0 675.84 0 1024 0 C1024 158.4 1024 316.8 1024 480 C686.08 480 348.16 480 0 480 C0 321.6 0 163.2 0 0 Z " transform="translate(0,0)" style="fill: #F3F3F3;"/><path d="M0 0 C8.17418556 3.79751149 15.49461424 9.28594947 22.8125 14.5 C31.82436975 20.85899266 40.96291 26.96989773 50.28637695 32.86328125 C51.1805835 33.435625 52.07479004 34.00796875 52.99609375 34.59765625 C53.77138428 35.08758057 54.5466748 35.57750488 55.34545898 36.08227539 C56.22145752 36.71512451 57.09745605 37.34797363 58 38 C58.67919998 38.40079773 59.35839996 38.80159546 60.05818176 39.21453857 C63.83834997 41.81417787 65.7194286 43.73322594 66.72987366 48.29536438 C67.01109211 52.49249192 67.03413594 56.6177769 66.95703125 60.8203125 C66.95479892 62.36774547 66.95538889 63.91518485 66.95866394 65.46261597 C66.95692585 68.69601717 66.92794863 71.9276337 66.87817383 75.16064453 C66.81569891 79.29825775 66.8109154 83.4334458 66.8251543 87.5714283 C66.83157343 90.76298889 66.81279213 93.95400409 66.78589439 97.14544296 C66.77504181 98.67079325 66.77073237 100.19620501 66.77317238 101.72159195 C66.77174027 103.85476629 66.73766452 105.98498791 66.69458008 108.11767578 C66.6815535 109.32900177 66.66852692 110.54032776 66.65510559 111.7883606 C65.52372497 117.33492687 61.26746383 120.02365476 56.77075195 123.05517578 C55.56712761 123.8722551 55.56712761 123.8722551 54.33918762 124.70584106 C53.05173897 125.56687943 53.05173897 125.56687943 51.73828125 126.4453125 C50.83361618 127.05583466 49.92895111 127.66635681 48.99687195 128.29537964 C47.07972427 129.58730939 45.16071873 130.87648587 43.23999023 132.16308594 C40.36285524 134.09125347 37.49252489 136.02921145 34.62304688 137.96875 C23.79359009 145.26418949 12.85387955 152.31038152 1.63883972 158.99923706 C0.06711592 159.95901544 -1.46769625 160.97846417 -3 162 C-11.61231901 161.41650955 -18.44098655 155.08506789 -25.32756042 150.32719421 C-31.78973707 145.86373526 -38.28597627 141.45671901 -44.82421875 137.10546875 C-47.03602024 135.62845115 -49.24740884 134.15081699 -51.45874023 132.6730957 C-52.9623499 131.67085397 -54.46793408 130.67156903 -55.9753418 129.67504883 C-58.20155163 128.20195141 -60.41969386 126.71734205 -62.63671875 125.23046875 C-63.30442795 124.79284714 -63.97213715 124.35522552 -64.66007996 123.90434265 C-73.21715723 118.12617542 -73.21715723 118.12617542 -75 114 C-75.7840061 108.87186984 -75.80248388 103.77516994 -75.8046875 98.6015625 C-75.81823082 97.08229789 -75.83265971 95.56304095 -75.84793091 94.04379272 C-75.87329963 90.86460731 -75.87864002 87.68610701 -75.87158203 84.50683594 C-75.86548639 80.44825835 -75.92335574 76.39341145 -75.99824333 72.3356266 C-76.0465254 69.19887864 -76.0532827 66.06302048 -76.0485878 62.92594528 C-76.0526197 61.43084241 -76.07097394 59.93570225 -76.10439682 58.44096756 C-76.33704341 46.85001234 -76.33704341 46.85001234 -73.07902527 42.34202576 C-68.95443925 38.58204109 -64.30764104 35.84941708 -59.37158203 33.28369141 C-54.69000939 30.74964684 -50.34643917 27.66248679 -45.9375 24.6875 C-44.90616943 23.99978516 -43.87483887 23.31207031 -42.81225586 22.60351562 C-37.85764379 19.29519199 -32.92404248 15.96264027 -28.04814148 12.539505 C-26.4326059 11.40752432 -24.81020449 10.28536301 -23.18774414 9.16333008 C-21.14886559 7.75199481 -19.12131791 6.32410608 -17.10717773 4.87768555 C-11.4912505 1.01664447 -6.88101159 -1.97937197 0 0 Z " transform="translate(541,158)" style="fill: #FAF7F7;"/><path d="M0 0 C8.17418556 3.79751149 15.49461424 9.28594947 22.8125 14.5 C31.82436975 20.85899266 40.96291 26.96989773 50.28637695 32.86328125 C51.1805835 33.435625 52.07479004 34.00796875 52.99609375 34.59765625 C53.77138428 35.08758057 54.5466748 35.57750488 55.34545898 36.08227539 C56.22145752 36.71512451 57.09745605 37.34797363 58 38 C58.67919998 38.40079773 59.35839996 38.80159546 60.05818176 39.21453857 C63.83834997 41.81417787 65.7194286 43.73322594 66.72987366 48.29536438 C67.01109211 52.49249192 67.03413594 56.6177769 66.95703125 60.8203125 C66.95479892 62.36774547 66.95538889 63.91518485 66.95866394 65.46261597 C66.95692585 68.69601717 66.92794863 71.9276337 66.87817383 75.16064453 C66.81569891 79.29825775 66.8109154 83.4334458 66.8251543 87.5714283 C66.83157343 90.76298889 66.81279213 93.95400409 66.78589439 97.14544296 C66.77504181 98.67079325 66.77073237 100.19620501 66.77317238 101.72159195 C66.77174027 103.85476629 66.73766452 105.98498791 66.69458008 108.11767578 C66.6815535 109.32900177 66.66852692 110.54032776 66.65510559 111.7883606 C65.52372497 117.33492687 61.26746383 120.02365476 56.77075195 123.05517578 C55.56712761 123.8722551 55.56712761 123.8722551 54.33918762 124.70584106 C53.05173897 125.56687943 53.05173897 125.56687943 51.73828125 126.4453125 C50.83361618 127.05583466 49.92895111 127.66635681 48.99687195 128.29537964 C47.07972427 129.58730939 45.16071873 130.87648587 43.23999023 132.16308594 C40.36285524 134.09125347 37.49252489 136.02921145 34.62304688 137.96875 C23.79359009 145.26418949 12.85387955 152.31038152 1.63883972 158.99923706 C0.06711592 159.95901544 -1.46769625 160.97846417 -3 162 C-11.61231901 161.41650955 -18.44098655 155.08506789 -25.32756042 150.32719421 C-31.78973707 145.86373526 -38.28597627 141.45671901 -44.82421875 137.10546875 C-47.03602024 135.62845115 -49.24740884 134.15081699 -51.45874023 132.6730957 C-52.9623499 131.67085397 -54.46793408 130.67156903 -55.9753418 129.67504883 C-58.20155163 128.20195141 -60.41969386 126.71734205 -62.63671875 125.23046875 C-63.30442795 124.79284714 -63.97213715 124.35522552 -64.66007996 123.90434265 C-73.21715723 118.12617542 -73.21715723 118.12617542 -75 114 C-75.7840061 108.87186984 -75.80248388 103.77516994 -75.8046875 98.6015625 C-75.81823082 97.08229789 -75.83265971 95.56304095 -75.84793091 94.04379272 C-75.87329963 90.86460731 -75.87864002 87.68610701 -75.87158203 84.50683594 C-75.86548639 80.44825835 -75.92335574 76.39341145 -75.99824333 72.3356266 C-76.0465254 69.19887864 -76.0532827 66.06302048 -76.0485878 62.92594528 C-76.0526197 61.43084241 -76.07097394 59.93570225 -76.10439682 58.44096756 C-76.33704341 46.85001234 -76.33704341 46.85001234 -73.07902527 42.34202576 C-68.95443925 38.58204109 -64.30764104 35.84941708 -59.37158203 33.28369141 C-54.69000939 30.74964684 -50.34643917 27.66248679 -45.9375 24.6875 C-44.90616943 23.99978516 -43.87483887 23.31207031 -42.81225586 22.60351562 C-37.85764379 19.29519199 -32.92404248 15.96264027 -28.04814148 12.539505 C-26.4326059 11.40752432 -24.81020449 10.28536301 -23.18774414 9.16333008 C-21.14886559 7.75199481 -19.12131791 6.32410608 -17.10717773 4.87768555 C-11.4912505 1.01664447 -6.88101159 -1.97937197 0 0 Z M-12.25 18.375 C-12.9709082 18.82834717 -13.69181641 19.28169434 -14.43457031 19.7487793 C-19.55843627 23.00384184 -24.50740991 26.44592454 -29.40917969 30.0234375 C-36.96546545 35.49567152 -44.85389151 40.47638371 -52.70507812 45.51123047 C-53.84106445 46.24817139 -53.84106445 46.24817139 -55 47 C-56.59207275 47.67760376 -56.59207275 47.67760376 -58.21630859 48.36889648 C-62.12763456 52.06582334 -61.81370274 54.98562479 -61.98757935 60.21781921 C-61.99425629 61.45949356 -62.00093323 62.70116791 -62.0078125 63.98046875 C-62.0277829 65.26303055 -62.0477533 66.54559235 -62.06832886 67.86701965 C-62.10422968 70.58328487 -62.11537508 73.29840692 -62.11181641 76.01489258 C-62.11132905 78.79006965 -62.15283819 81.55929761 -62.23486328 84.33325195 C-63.59851336 99.80136846 -63.59851336 99.80136846 -58.65991211 113.59277344 C-55.54263956 115.9603479 -52.58806921 117.45491963 -49 119 C-47.03378552 120.29379247 -45.09147321 121.62469978 -43.17578125 122.9921875 C-41.22436706 124.29099652 -39.26987959 125.58519871 -37.3125 126.875 C-36.27810791 127.5568335 -35.24371582 128.23866699 -34.17797852 128.94116211 C-32.09811013 130.31148326 -30.01763855 131.6808894 -27.93652344 133.04931641 C-25.24029996 134.84037274 -22.57320345 136.66624308 -19.9140625 138.51171875 C-18.76877075 139.29216553 -18.76877075 139.29216553 -17.6003418 140.08837891 C-16.20342319 141.04047221 -14.81600099 142.00672095 -13.44067383 142.98974609 C-10.25976005 145.12631005 -8.28298427 145.9993828 -4.41796875 146.0078125 C-0.68314499 144.90657304 1.90332295 143.49661941 5.125 141.3125 C6.00019287 140.72734619 6.00019287 140.72734619 6.89306641 140.13037109 C8.20366465 139.25271733 9.51059956 138.3695764 10.81445312 137.48193359 C13.20336113 135.86210879 15.60786272 134.26743788 18.015625 132.67578125 C26.44778602 127.09541258 34.84324648 121.46104964 43.1875 115.75 C43.85249512 115.29641113 44.51749023 114.84282227 45.20263672 114.37548828 C47.64004183 112.69860012 49.90311891 111.09688109 52 109 C52.36909741 106.5109559 52.36909741 106.5109559 52.40161133 103.57568359 C52.43696487 102.44045258 52.47231842 101.30522156 52.50874329 100.1355896 C52.6108945 94.92662229 52.70206976 89.71800161 52.75512695 84.50830078 C52.78620352 81.76187872 52.84869158 79.01900452 52.93969727 76.27392578 C53.07082869 72.31556295 53.11082085 68.35888456 53.14453125 64.3984375 C53.19503128 63.17732269 53.24553131 61.95620789 53.29756165 60.6980896 C53.26819279 54.07601749 53.26819279 54.07601749 49.84715271 48.64190674 C46.99363616 46.53470133 44.07908776 44.75881807 41 43 C39.23967059 41.82219984 37.48734019 40.6323416 35.74389648 39.4296875 C33.95484861 38.2419454 32.16385977 37.0571225 30.37109375 35.875 C29.41477554 35.24263428 28.45845734 34.61026855 27.47315979 33.95874023 C25.47672459 32.63993633 23.47939726 31.32248201 21.48120117 30.00634766 C18.4103982 27.98213503 15.34477665 25.95023124 12.27929688 23.91796875 C10.33103779 22.63234468 8.38248104 21.34717157 6.43359375 20.0625 C5.51597763 19.45325684 4.59836151 18.84401367 3.65293884 18.21630859 C2.80768143 17.66152832 1.96242401 17.10674805 1.09155273 16.53515625 C-0.02450096 15.79857788 -0.02450096 15.79857788 -1.1631012 15.04711914 C-5.41014343 12.62610433 -8.61665771 16.07436225 -12.25 18.375 Z " transform="translate(541,158)" style="fill: #27323D;"/><path d="M0 0 C3.62575515 1.45030206 5.92840389 2.46674831 8.9765625 4.6171875 C10.09285034 5.39618408 10.09285034 5.39618408 11.23168945 6.19091797 C12.02148193 6.74666504 12.81127441 7.30241211 13.625 7.875 C20.47738159 12.60737795 27.34197186 17.31792648 34.3125 21.875 C35.48449951 22.66946533 35.48449951 22.66946533 36.68017578 23.47998047 C39.97575297 25.60752312 42.10363528 26.9715259 46.07421875 27.09765625 C49.87748762 25.6707957 53.1062133 23.77766351 56.5 21.5625 C57.19488525 21.11874023 57.88977051 20.67498047 58.60571289 20.21777344 C64.48978594 16.422115 70.18941051 12.38470434 75.85546875 8.2734375 C78.62946398 6.26789064 81.41875325 4.2986222 84.25 2.375 C84.93578125 1.90835938 85.6215625 1.44171875 86.328125 0.9609375 C88 0 88 0 90 0 C90.22325199 5.8530184 90.38614011 11.70353786 90.49438477 17.55981445 C90.53952059 19.54951155 90.600849 21.53891215 90.67895508 23.52758789 C91.30925905 39.99376415 91.30925905 39.99376415 88.22241211 44.72387695 C85.89619431 46.55596921 83.68797877 47.77285023 81 49 C79.69236912 49.86495076 78.39814238 50.75065907 77.12109375 51.66015625 C75.89530535 52.464112 74.66743295 53.26489923 73.4375 54.0625 C69.44337541 56.68111211 65.50862006 59.29735208 61.75 62.25 C49.87732559 71.31687827 49.87732559 71.31687827 44.62353516 70.73828125 C41.77262827 69.936016 39.85801255 68.84884926 37.41015625 67.19140625 C36.54986816 66.61374512 35.68958008 66.03608398 34.80322266 65.44091797 C33.89878418 64.82104004 32.9943457 64.20116211 32.0625 63.5625 C31.12970215 62.93230957 30.1969043 62.30211914 29.23583984 61.65283203 C22.74132265 57.24667759 16.33336017 52.73101386 10.0078125 48.0859375 C6.79949441 45.86094807 3.38991777 43.93709587 0 42 C0 28.14 0 14.28 0 0 Z " transform="translate(491,220)" style="fill: #F07844;"/><path d="M0 0 C3.88884188 1.27271189 7.05844745 3.32512271 10.48046875 5.5390625 C11.54068237 6.21412842 11.54068237 6.21412842 12.62231445 6.90283203 C19.91533289 11.57509102 27.13160666 16.36292742 33.79296875 21.9140625 C32.68269379 25.24488738 32.30114822 25.51293722 29.46875 27.26171875 C28.77620117 27.69774414 28.08365234 28.13376953 27.37011719 28.58300781 C26.6227832 29.04288086 25.87544922 29.50275391 25.10546875 29.9765625 C20.54957269 32.82809457 16.03278192 35.6736625 11.7265625 38.89453125 C11.10289795 39.36044678 10.4792334 39.8263623 9.83666992 40.30639648 C8.66473408 41.19344361 7.50161423 42.09229351 6.34887695 43.00415039 C3.84169126 44.89189127 2.3386009 45.92615184 -0.8515625 45.85546875 C-3.32373453 44.8674199 -5.07663942 43.77194547 -7.14453125 42.1015625 C-13.2581561 37.2181948 -19.90668473 33.22037355 -26.58203125 29.1640625 C-27.41347656 28.65746094 -28.24492187 28.15085938 -29.1015625 27.62890625 C-31.13604345 26.38950981 -33.17121174 25.15125855 -35.20703125 23.9140625 C-31.48380059 19.92843273 -27.59746872 16.98085862 -23.01953125 14.0390625 C-21.68689186 13.16759592 -20.3548623 12.2951961 -19.0234375 11.421875 C-18.3752002 10.9980957 -17.72696289 10.57431641 -17.05908203 10.13769531 C-13.71014752 7.92508527 -10.43652525 5.60703785 -7.16015625 3.2890625 C-2.35778406 -0.09180752 -2.35778406 -0.09180752 0 0 Z " transform="translate(536.20703125,190.0859375)" style="fill: #FA9659;"/><path d="M0 0 C0 2.97 0 5.94 0 9 C1.32 9 2.64 9 4 9 C4 8.34 4 7.68 4 7 C4.99 6.67 5.98 6.34 7 6 C7.73323796 3.98491642 7.73323796 3.98491642 8 2 C10.475 1.505 10.475 1.505 13 1 C12.64958497 3.63187868 12.23043497 4.78313918 10.27172852 6.62646484 C9.46147217 7.19059082 8.65121582 7.7547168 7.81640625 8.3359375 C6.81883301 9.03170898 5.82125977 9.72748047 4.79345703 10.44433594 C3.53071063 11.29879996 2.26602522 12.15040164 1 13 C0.23161804 13.51647095 -0.53676392 14.03294189 -1.32843018 14.56506348 C-6.89298324 18.29384771 -12.48153746 21.98543684 -18.0793457 25.6640625 C-21.06109593 27.62407706 -24.03951222 29.58908067 -27.01757812 31.5546875 C-28.93990804 32.82061037 -30.8624277 34.08624518 -32.78515625 35.3515625 C-33.66148209 35.92983795 -34.53780792 36.5081134 -35.44068909 37.10391235 C-39.73762446 39.92389547 -44.05966156 42.70259403 -48.42749023 45.41162109 C-49.22428696 45.90777924 -50.02108368 46.40393738 -50.84202576 46.91513062 C-53 48 -53 48 -56.375 48.0625 C-59.02168192 46.99122399 -60.94069174 45.9801041 -63 44 C-63 43.34 -63 42.68 -63 42 C-63.66 41.67 -64.32 41.34 -65 41 C-63.515 40.505 -63.515 40.505 -62 40 C-62 38.68 -62 37.36 -62 36 C-61.01 36.33 -60.02 36.66 -59 37 C-59.33 35.68 -59.66 34.36 -60 33 C-58.74896484 32.89751953 -58.74896484 32.89751953 -57.47265625 32.79296875 C-53.07415589 31.78858678 -50.13204195 29.82594594 -46.4375 27.3125 C-45.71151611 26.83063232 -44.98553223 26.34876465 -44.23754883 25.85229492 C-42.65987775 24.80323098 -41.08536781 23.74940108 -39.51367188 22.69140625 C-36.89594499 20.92998319 -34.26937237 19.18242806 -31.640625 17.4375 C-29.82281784 16.22931535 -28.00510936 15.02098221 -26.1875 13.8125 C-25.29611328 13.21985352 -24.40472656 12.62720703 -23.48632812 12.01660156 C-19.67858826 9.47858016 -15.88113198 6.93323233 -12.140625 4.296875 C-10.55507813 3.19085938 -10.55507813 3.19085938 -8.9375 2.0625 C-8.05964844 1.43472656 -7.18179688 0.80695313 -6.27734375 0.16015625 C-4 -1 -4 -1 0 0 Z " transform="translate(591,272)" style="fill: #1F2D35;"/><path d="M0 0 C0.93423645 3.01031744 1.04449911 3.86650268 0 7 C-2.4854442 8.72600292 -4.75227303 9.91742434 -7.625 10.875 C-10.66922991 12.31700364 -11.34630035 14.14360969 -13 17 C-13.99 17 -14.98 17 -16 17 C-16 17.66 -16 18.32 -16 19 C-17.625 21.125 -17.625 21.125 -20 23 C-23.25 23.25 -23.25 23.25 -26 23 C-26.99 24.98 -27.98 26.96 -29 29 C-29.99 28.34 -30.98 27.68 -32 27 C-34.15377564 29.62198774 -35.40072174 31.64404172 -36 35 C-36.598125 34.79375 -37.19625 34.5875 -37.8125 34.375 C-40.28450846 33.69328085 -40.28450846 33.69328085 -43 36 C-44.65549531 36.38499891 -46.3222433 36.72793135 -48 37 C-48 37.66 -48 38.32 -48 39 C-54.75 43 -54.75 43 -57 43 C-57 43.66 -57 44.32 -57 45 C-59.3125 45.6875 -59.3125 45.6875 -62 46 C-63.66796875 44.51953125 -63.66796875 44.51953125 -65 43 C-64.24315918 42.59217285 -63.48631836 42.1843457 -62.70654297 41.76416016 C-52.07642805 35.87477495 -42.05891444 29.16199951 -32.01171875 22.3359375 C-29.1130618 20.36689042 -26.20932345 18.40552626 -23.3046875 16.4453125 C-21.43459684 15.18012934 -19.56479488 13.91451931 -17.6953125 12.6484375 C-16.4122673 11.78102432 -16.4122673 11.78102432 -15.103302 10.89608765 C-9.9611083 7.3990249 -4.93792044 3.78019598 0 0 Z " transform="translate(604,275)" style="fill: #DFD5D8;"/><path d="M0 0 C9.08770795 5.68482171 17.99309169 11.63257302 26.89941406 17.59570312 C28.7194816 18.81246608 30.54212793 20.02511936 32.3671875 21.234375 C37.6500958 24.73762984 42.90357464 28.28090086 48.125 31.875 C49.20007813 32.61492187 50.27515625 33.35484375 51.3828125 34.1171875 C54 36 54 36 56 38 C53 39 53 39 51 39 C50.01 39.495 50.01 39.495 49 40 C49 39.01 49 38.02 49 37 C46.4616187 35.68004173 44.0071175 34.62977263 41.3125 33.625 C40.219375 33.08875 39.12625 32.5525 38 32 C37.6278958 30.67696283 37.29369827 29.34262065 37 28 C34.05119992 26.26918256 31.24035543 25.08011848 28 24 C27.01 24.33 26.02 24.66 25 25 C25 23.35 25 21.7 25 20 C20.90207444 17.80468273 17.3233778 15.94794721 12.75 15.0625 C8.44368489 13.84237739 7.48203832 12.58516646 5 9 C4.01 8.67 3.02 8.34 2 8 C0.25 6.1875 0.25 6.1875 -1 4 C-0.578125 1.86328125 -0.578125 1.86328125 0 0 Z " transform="translate(473,279)" style="fill: #E1DAD8;"/><path d="M0 0 C3.90084935 1.24390721 7.05720594 3.30088199 10.48046875 5.515625 C11.54068237 6.19069092 11.54068237 6.19069092 12.62231445 6.87939453 C19.91533289 11.55165352 27.13160666 16.33948992 33.79296875 21.890625 C32.68269379 25.22144988 32.30114822 25.48949972 29.46875 27.23828125 C28.77620117 27.67430664 28.08365234 28.11033203 27.37011719 28.55957031 C26.6227832 29.01944336 25.87544922 29.47931641 25.10546875 29.953125 C20.54957269 32.80465707 16.03278192 35.650225 11.7265625 38.87109375 C11.10289795 39.33700928 10.4792334 39.8029248 9.83666992 40.28295898 C8.66473408 41.17000611 7.50161423 42.06885601 6.34887695 42.98071289 C3.81675485 44.8872292 2.33139998 45.90551611 -0.890625 45.81640625 C-4.36725046 44.42692862 -6.44206395 42.39838604 -9.20703125 39.890625 C-8.21703125 39.395625 -8.21703125 39.395625 -7.20703125 38.890625 C-5.53639378 39.88397701 -3.87027526 40.88494258 -2.20703125 41.890625 C0.48551866 42.59733228 0.48551866 42.59733228 2.79296875 42.890625 C2.79296875 42.230625 2.79296875 41.570625 2.79296875 40.890625 C5.26796875 40.395625 5.26796875 40.395625 7.79296875 39.890625 C7.46296875 38.900625 7.13296875 37.910625 6.79296875 36.890625 C7.35886719 36.69726562 7.92476562 36.50390625 8.5078125 36.3046875 C9.24128906 36.04429687 9.97476563 35.78390625 10.73046875 35.515625 C11.46136719 35.26039063 12.19226563 35.00515625 12.9453125 34.7421875 C14.97978991 34.03791087 14.97978991 34.03791087 15.79296875 31.890625 C17.11296875 31.890625 18.43296875 31.890625 19.79296875 31.890625 C19.79296875 31.230625 19.79296875 30.570625 19.79296875 29.890625 C21.10546875 28.265625 21.10546875 28.265625 22.79296875 26.890625 C23.78296875 26.890625 24.77296875 26.890625 25.79296875 26.890625 C25.29796875 25.405625 25.29796875 25.405625 24.79296875 23.890625 C26.77296875 23.890625 28.75296875 23.890625 30.79296875 23.890625 C30.79296875 22.900625 30.79296875 21.910625 30.79296875 20.890625 C30.07109375 20.601875 29.34921875 20.313125 28.60546875 20.015625 C26.00130208 18.97395833 23.39713542 17.93229167 20.79296875 16.890625 C20.79296875 16.230625 20.79296875 15.570625 20.79296875 14.890625 C18.81296875 14.230625 16.83296875 13.570625 14.79296875 12.890625 C14.79296875 11.900625 14.79296875 10.910625 14.79296875 9.890625 C13.80296875 9.890625 12.81296875 9.890625 11.79296875 9.890625 C11.79296875 9.230625 11.79296875 8.570625 11.79296875 7.890625 C10.67921875 7.7875 9.56546875 7.684375 8.41796875 7.578125 C6.62359375 7.2378125 6.62359375 7.2378125 4.79296875 6.890625 C4.13296875 5.900625 3.47296875 4.910625 2.79296875 3.890625 C-0.16472302 3.39051976 -0.16472302 3.39051976 -3.20703125 3.890625 C-4.22900117 4.86816144 -5.2268275 5.8712131 -6.20703125 6.890625 C-8.5169144 7.63448568 -10.85019069 8.31253203 -13.20703125 8.890625 C-4.59525218 -0.22772931 -4.59525218 -0.22772931 0 0 Z " transform="translate(536.20703125,190.109375)" style="fill: #E2A985;"/><path d="M0 0 C0.22325199 5.8530184 0.38614011 11.70353786 0.49438477 17.55981445 C0.53952059 19.54951155 0.600849 21.53891215 0.67895508 23.52758789 C1.30914203 39.99070703 1.30914203 39.99070703 -1.77758789 44.72827148 C-4.10487098 46.5646841 -6.30614453 47.77746366 -9 49 C-10.32679601 49.86449225 -11.64176031 50.74754823 -12.94140625 51.65234375 C-14.14555087 52.4186176 -15.35253549 53.1804493 -16.5625 53.9375 C-17.18962891 54.33517578 -17.81675781 54.73285156 -18.46289062 55.14257812 C-19.97266864 56.09915503 -21.48594108 57.05021339 -23 58 C-23.33 57.34 -23.66 56.68 -24 56 C-22.5459375 55.071875 -22.5459375 55.071875 -21.0625 54.125 C-17.97164638 52.34321154 -17.97164638 52.34321154 -17 50 C-14.4375 49.375 -14.4375 49.375 -12 49 C-12 48.34 -12 47.68 -12 47 C-9.525 46.505 -9.525 46.505 -7 46 C-7 45.34 -7 44.68 -7 44 C-5.35 43.34 -3.7 42.68 -2 42 C-2 29.13 -2 16.26 -2 3 C-2.66 2.67 -3.32 2.34 -4 2 C-2 0 -2 0 0 0 Z " transform="translate(581,220)" style="fill: #D5815F;"/><path d="M0 0 C-1.32335018 3.06723553 -2.53975309 4.69670427 -5.30053711 6.56542969 C-5.97140854 7.02560486 -6.64227997 7.48578003 -7.33348083 7.9598999 C-8.0574556 8.44235168 -8.78143036 8.92480347 -9.52734375 9.421875 C-10.27206436 9.92672424 -11.01678497 10.43157349 -11.78407288 10.95172119 C-13.35723663 12.01501617 -14.93344551 13.07381779 -16.51245117 14.12841797 C-18.9326647 15.74676673 -21.34082323 17.38194074 -23.74804688 19.01953125 C-25.27795698 20.05050213 -26.80853389 21.08048434 -28.33984375 22.109375 C-29.06179428 22.59992371 -29.78374481 23.09047241 -30.52757263 23.59588623 C-35.65407973 27 -35.65407973 27 -39 27 C-39 26.34 -39 25.68 -39 25 C-37.35 24.67 -35.7 24.34 -34 24 C-34 23.01 -34 22.02 -34 21 C-32.02 20.67 -30.04 20.34 -28 20 C-28.33 19.01 -28.66 18.02 -29 17 C-24.25 16 -24.25 16 -22 16 C-22 15.34 -22 14.68 -22 14 C-22.66 13.67 -23.32 13.34 -24 13 C-22.03177114 11.03177114 -18.65191291 11.33751619 -16 11 C-15.67 10.01 -15.34 9.02 -15 8 C-13.02 7.67 -11.04 7.34 -9 7 C-9 6.34 -9 5.68 -9 5 C-8.01 4.67 -7.02 4.34 -6 4 C-5.6278958 2.67696283 -5.29369827 1.34262065 -5 0 C-3 -1 -3 -1 0 0 Z " transform="translate(604,274)" style="fill: #1E3226;"/><path d="M0 0 C-1.39253532 3.48133831 -2.63176216 4.47886033 -6 6 C-6.33 6.66 -6.66 7.32 -7 8 C-7.99 8.33 -8.98 8.66 -10 9 C-11.97122608 11.08919881 -11.97122608 11.08919881 -13 14 C-12.29614601 17.75815858 -12.29614601 17.75815858 -11 21 C-14.63 19.02 -18.26 17.04 -22 15 C-18.14775005 10.86460595 -14.03180437 7.77724826 -9.3125 4.6875 C-8.63638672 4.23310547 -7.96027344 3.77871094 -7.26367188 3.31054688 C-2.26051457 0 -2.26051457 0 0 0 Z " transform="translate(523,199)" style="fill: #E9A270;"/><path d="M0 0 C1.98 0 3.96 0 6 0 C4.80436607 3.58690179 3.93350204 3.96413883 0.80859375 5.92578125 C-0.05443359 6.47556641 -0.91746094 7.02535156 -1.80664062 7.59179688 C-2.71607422 8.15962891 -3.62550781 8.72746094 -4.5625 9.3125 C-10.35646217 12.96493926 -16.0077745 16.62148153 -21.3605957 20.90429688 C-23 22 -23 22 -25.625 22.1875 C-28.8968292 20.5515854 -31.28911697 18.45870786 -34 16 C-33.34 15.67 -32.68 15.34 -32 15 C-30.32936253 15.99335201 -28.66324401 16.99431758 -27 18 C-24.30745009 18.70670728 -24.30745009 18.70670728 -22 19 C-22 18.34 -22 17.68 -22 17 C-20.35 16.67 -18.7 16.34 -17 16 C-17.33 15.01 -17.66 14.02 -18 13 C-17.43410156 12.80664062 -16.86820313 12.61328125 -16.28515625 12.4140625 C-15.55167969 12.15367187 -14.81820312 11.89328125 -14.0625 11.625 C-13.33160156 11.36976563 -12.60070312 11.11453125 -11.84765625 10.8515625 C-9.81317884 10.14728587 -9.81317884 10.14728587 -9 8 C-7.68 8 -6.36 8 -5 8 C-5 7.34 -5 6.68 -5 6 C-3.6875 4.375 -3.6875 4.375 -2 3 C-1.01 3 -0.02 3 1 3 C0.505 1.515 0.505 1.515 0 0 Z " transform="translate(561,214)" style="fill: #E59B5B;"/><path d="M0 0 C2.475 0.99 2.475 0.99 5 2 C4.01 2.33 3.02 2.66 2 3 C2.17015625 4.17820313 2.3403125 5.35640625 2.515625 6.5703125 C2.98720471 10.77990339 3.01340395 14.88341526 2.921875 19.1171875 C2.89609375 20.38304687 2.8703125 21.64890625 2.84375 22.953125 C2.78068011 25.5915487 2.70228253 28.22964591 2.609375 30.8671875 C2.58875 32.1253125 2.568125 33.3834375 2.546875 34.6796875 C2.51432617 35.82163574 2.48177734 36.96358398 2.44824219 38.14013672 C2.7113232 41.2259356 2.7113232 41.2259356 5.52832031 42.89501953 C6.34397461 43.25966309 7.15962891 43.62430664 8 44 C7.67 44.66 7.34 45.32 7 46 C4.69 44.68 2.38 43.36 0 42 C0 28.14 0 14.28 0 0 Z " transform="translate(491,220)" style="fill: #DE9A6F;"/><path d="M0 0 C1.7541123 1.07666203 3.50312587 2.16163339 5.25 3.25 C6.71179688 4.15492188 6.71179688 4.15492188 8.203125 5.078125 C10.79705245 6.86054442 12.86377619 8.70101628 15 11 C13.6875 12.5 13.6875 12.5 12 14 C11.01 14 10.02 14 9 14 C7.64613064 12.34997172 6.31321858 10.6825613 5 9 C4.01 8.67 3.02 8.34 2 8 C0.25 6.1875 0.25 6.1875 -1 4 C-0.578125 1.86328125 -0.578125 1.86328125 0 0 Z " transform="translate(473,279)" style="fill: #EAE5E3;"/><path d="M0 0 C0.33 0.66 0.66 1.32 1 2 C0.34 2 -0.32 2 -1 2 C-1 2.99 -1 3.98 -1 5 C-1.66 5 -2.32 5 -3 5 C-3.25265625 5.61488281 -3.5053125 6.22976562 -3.765625 6.86328125 C-5.83167758 10.43964442 -9.2562772 11.55104062 -13 13 C-16.5 13.75 -16.5 13.75 -19 14 C-15.53233124 10.17483962 -11.54420806 7.54245288 -7.25 4.75 C-6.20392578 4.06164062 -6.20392578 4.06164062 -5.13671875 3.359375 C-3.42725789 2.23534594 -1.71400488 1.11708776 0 0 Z " transform="translate(525,179)" style="fill: #F7EEF2;"/><path d="M0 0 C5.14088014 0.47643433 8.05072655 2.09307908 12.1875 5.125 C13.3190219 5.9405956 14.45185965 6.75436843 15.5859375 7.56640625 C16.15151367 7.97391113 16.71708984 8.38141602 17.29980469 8.80126953 C21.41855803 11.70521538 25.72433552 14.33520711 30 17 C29.34 17.66 28.68 18.32 28 19 C27.29915283 18.5153125 26.59830566 18.030625 25.8762207 17.53125 C23.26398655 15.73283973 20.64489469 13.94504179 18.02075195 12.1640625 C16.88802281 11.39218133 15.75809366 10.61617403 14.63110352 9.8359375 C13.00765031 8.713055 11.37306625 7.60631976 9.73828125 6.5 C8.75899658 5.8296875 7.77971191 5.159375 6.77075195 4.46875 C3.8540899 2.92265441 2.24263758 2.66874891 -1 3 C-0.67 2.01 -0.34 1.02 0 0 Z " transform="translate(534,170)" style="fill: #2C4130;"/><path d="M0 0 C1.65 0 3.3 0 5 0 C5 0.66 5 1.32 5 2 C8.58045212 4.74778884 11.4923533 6.46968862 16 7 C16.33 7.99 16.66 8.98 17 10 C18.66072849 10.68132451 20.327767 11.34742127 22 12 C22.99 13.485 22.99 13.485 24 15 C26.05003955 16.19232613 26.05003955 16.19232613 28 17 C27.34 17.66 26.68 18.32 26 19 C25.21238281 18.45472656 24.42476562 17.90945313 23.61328125 17.34765625 C23.0927417 16.98736328 22.57220215 16.62707031 22.03588867 16.25585938 C20.87819512 15.45421522 19.72081021 14.65212517 18.5637207 13.84960938 C15.46359884 11.70043743 12.35849677 9.55923956 9.2421875 7.43359375 C8.64623779 7.0255249 8.05028809 6.61745605 7.4362793 6.19702148 C5.75454395 5.04589089 4.07067454 3.89787992 2.38671875 2.75 C1.59910156 2.1725 0.81148438 1.595 0 1 C0 0.67 0 0.34 0 0 Z " transform="translate(492,291)" style="fill: #263627;"/><path d="M0 0 C1.32 0 2.64 0 4 0 C4 0.66 4 1.32 4 2 C4.639375 2.12375 5.27875 2.2475 5.9375 2.375 C6.618125 2.58125 7.29875 2.7875 8 3 C8.33 3.66 8.66 4.32 9 5 C9.825 5.309375 10.65 5.61875 11.5 5.9375 C12.7375 6.4634375 12.7375 6.4634375 14 7 C14.33 7.99 14.66 8.98 15 10 C16.0828125 10.0928125 16.0828125 10.0928125 17.1875 10.1875 C20.84657625 11.24456647 22.49211602 13.20550071 25 16 C21.56718038 16 20.70118696 15.38409216 17.91015625 13.515625 C17.12576172 12.99226563 16.34136719 12.46890625 15.53320312 11.9296875 C14.71787109 11.37539063 13.90253906 10.82109375 13.0625 10.25 C12.25103516 9.71117187 11.43957031 9.17234375 10.60351562 8.6171875 C6.72983588 6.01143082 3.12707123 3.51049959 0 0 Z " transform="translate(508,272)" style="fill: #DA9556;"/><path d="M0 0 C-1.33430726 4.00292179 -3.95279726 5.56271857 -7.34375 7.75390625 C-9.28857865 9.07385351 -9.28857865 9.07385351 -11 12 C-12.9453125 12.29296875 -12.9453125 12.29296875 -15.125 12.1875 C-17.043125 12.0946875 -17.043125 12.0946875 -19 12 C-15.39438634 9.04086421 -11.68580902 6.34824456 -7.8125 3.75 C-6.76707031 3.04359375 -5.72164062 2.3371875 -4.64453125 1.609375 C-2 0 -2 0 0 0 Z " transform="translate(554,225)" style="fill: #FDEEE2;"/><path d="M0 0 C1.0828125 0.495 1.0828125 0.495 2.1875 1 C4.91497863 2.1584501 4.91497863 2.1584501 7.625 1.9375 C10 2 10 2 11.8125 3.375 C13 5 13 5 13 7 C13.99 7.33 14.98 7.66 16 8 C17.1875 10.5625 17.1875 10.5625 18 13 C5.50674616 5.16065265 5.50674616 5.16065265 0 1 C0 0.67 0 0.34 0 0 Z " transform="translate(473,278)" style="fill: #202F26;"/><path d="M0 0 C4.5055844 0.55799289 7.4403314 2.30352624 11.1875 4.8125 C12.23292969 5.49957031 13.27835938 6.18664062 14.35546875 6.89453125 C16.85090753 8.88129861 17.92158865 10.05587086 19 13 C18.01 13.33 17.02 13.66 16 14 C16 12.68 16 11.36 16 10 C15.278125 9.71125 14.55625 9.4225 13.8125 9.125 C11.20833333 8.08333333 8.60416667 7.04166667 6 6 C6 5.34 6 4.68 6 4 C4.02 3.34 2.04 2.68 0 2 C0 1.34 0 0.68 0 0 Z " transform="translate(551,201)" style="fill: #E79F77;"/><path d="M0 0 C0.99 0.33 1.98 0.66 3 1 C-4.14717492 6.3223643 -11.42251879 11.30987623 -19 16 C-19.33 15.34 -19.66 14.68 -20 14 C-19.030625 13.38125 -18.06125 12.7625 -17.0625 12.125 C-13.97164638 10.34321154 -13.97164638 10.34321154 -13 8 C-10.4375 7.375 -10.4375 7.375 -8 7 C-8 6.34 -8 5.68 -8 5 C-6.35 4.67 -4.7 4.34 -3 4 C-3 3.34 -3 2.68 -3 2 C-2.01 1.34 -1.02 0.68 0 0 Z " transform="translate(577,262)" style="fill: #CB8A4B;"/><path d="M0 0 C1.98 0 3.96 0 6 0 C4.86248207 3.41255379 4.34702901 3.69510839 1.40234375 5.48046875 C0.68369141 5.92197266 -0.03496094 6.36347656 -0.77539062 6.81835938 C-1.53013672 7.27017578 -2.28488281 7.72199219 -3.0625 8.1875 C-3.82111328 8.65091797 -4.57972656 9.11433594 -5.36132812 9.59179688 C-7.23633183 10.73566706 -9.11584922 11.87128255 -11 13 C-11.33 12.34 -11.66 11.68 -12 11 C-10.75 9.5 -10.75 9.5 -9 8 C-7.68 8 -6.36 8 -5 8 C-5 7.34 -5 6.68 -5 6 C-3.6875 4.375 -3.6875 4.375 -2 3 C-1.01 3 -0.02 3 1 3 C0.67 2.01 0.34 1.02 0 0 Z " transform="translate(561,214)" style="fill: #E4A969;"/><path d="M0 0 C-3.02843502 2.46060345 -6.09389512 4.87203778 -9.1875 7.25 C-9.86167969 7.77078125 -10.53585937 8.2915625 -11.23046875 8.828125 C-13 10 -13 10 -15 10 C-15 9.34 -15 8.68 -15 8 C-14.34 8 -13.68 8 -13 8 C-13 7.34 -13 6.68 -13 6 C-12.34 6 -11.68 6 -11 6 C-11.33 5.01 -11.66 4.02 -12 3 C-7.89542386 0.01485372 -5.02254631 -0.2954439 0 0 Z " transform="translate(572,225)" style="fill: #F6EBED;"/><path d="M0 0 C3.41021743 0.78697325 6.68885166 1.87119943 10 3 C9.360625 3.268125 8.72125 3.53625 8.0625 3.8125 C5.66868314 4.88667752 5.66868314 4.88667752 5 8 C4.01 8 3.02 8 2 8 C1.67 8.99 1.34 9.98 1 11 C0.34 11 -0.32 11 -1 11 C-1.33 9.68 -1.66 8.36 -2 7 C-1.01 6.34 -0.02 5.68 1 5 C1.72382467 2.94074861 1.72382467 2.94074861 2 1 C1.34 0.67 0.68 0.34 0 0 Z " transform="translate(527,301)" style="fill: #2D363B;"/><path d="M0 0 C0 0.99 0 1.98 0 3 C-3 5 -3 5 -7 5 C-7 5.66 -7 6.32 -7 7 C-7.66 7 -8.32 7 -9 7 C-9 7.66 -9 8.32 -9 9 C-12 11 -12 11 -14.1875 10.625 C-14.785625 10.41875 -15.38375 10.2125 -16 10 C-13.71234889 8.32756577 -11.42026108 6.66193073 -9.125 5 C-8.14853516 4.28457031 -8.14853516 4.28457031 -7.15234375 3.5546875 C-2.2265625 0 -2.2265625 0 0 0 Z " transform="translate(572,226)" style="fill: #D98B6B;"/><path d="M0 0 C1.0828125 0.495 1.0828125 0.495 2.1875 1 C5.01697427 2.00603529 7.02895466 2.16977402 10 2 C10 3.32 10 4.64 10 6 C8.35 6.33 6.7 6.66 5 7 C5 6.34 5 5.68 5 5 C2.525 4.01 2.525 4.01 0 3 C0 2.01 0 1.02 0 0 Z " transform="translate(529,317)" style="fill: #E4D8DE;"/><path d="M0 0 C4.77826683 2.21431878 8.78542278 4.88121286 13 8 C10.04335481 9.4783226 7.25770263 9.06032783 4 9 C4 7.02 4 5.04 4 3 C2.68 2.67 1.36 2.34 0 2 C0 1.34 0 0.68 0 0 Z " transform="translate(496,223)" style="fill: #E48E67;"/><path d="M0 0 C0.66 0.33 1.32 0.66 2 1 C1.34 2.32 0.68 3.64 0 5 C-0.99 4.67 -1.98 4.34 -3 4 C-3 4.66 -3 5.32 -3 6 C-3.99 6 -4.98 6 -6 6 C-6.33 6.99 -6.66 7.98 -7 9 C-9.31 9.33 -11.62 9.66 -14 10 C-9.57557408 6.28919117 -4.82596069 3.15422267 0 0 Z " transform="translate(498,197)" style="fill: #E3E2D8;"/><path d="M0 0 C5.28 0 10.56 0 16 0 C16.33 1.32 16.66 2.64 17 4 C16.43152344 3.83886719 15.86304688 3.67773438 15.27734375 3.51171875 C9.72733568 2.26463289 4.11022593 2.36246404 -1 5 C-0.67 3.35 -0.34 1.7 0 0 Z " transform="translate(528,156)" style="fill: #E4E3EF;"/><path d="M0 0 C3.63 2.31 7.26 4.62 11 7 C7 9 7 9 4 9 C4 8.01 4 7.02 4 6 C3.01 5.67 2.02 5.34 1 5 C0.67 3.35 0.34 1.7 0 0 Z " transform="translate(581,201)" style="fill: #E9E9E0;"/><path d="M0 0 C3 2 3 2 3.375 3.875 C4.29732139 7.01089273 6.41443468 8.14369669 9 10 C5.50155614 9.36610765 3.15913124 7.94822306 0.25 5.9375 C-0.54921875 5.38964844 -1.3484375 4.84179688 -2.171875 4.27734375 C-2.77515625 3.85582031 -3.3784375 3.43429688 -4 3 C-2.68 2.67 -1.36 2.34 0 2 C0 1.34 0 0.68 0 0 Z " transform="translate(580,195)" style="fill: #263831;"/><path d="M0 0 C9.59453303 6.15034169 9.59453303 6.15034169 13 10 C10.69 9.67 8.38 9.34 6 9 C5.67 8.01 5.34 7.02 5 6 C3.35 5.67 1.7 5.34 0 5 C0 3.35 0 1.7 0 0 Z " transform="translate(506,271)" style="fill: #FCE9D9;"/><path d="M0 0 C-1.49835228 4.66154042 -4.88463591 5.86610751 -9 8 C-8.875 5.6875 -8.875 5.6875 -8 3 C-3.13793103 0 -3.13793103 0 0 0 Z " transform="translate(593,265)" style="fill: #E9EAF6;"/><path d="M0 0 C0 3.75818619 -0.57950968 5.12566775 -3 8 C-5.72922505 8.74824908 -8.14370129 8.85952629 -11 9 C-7.67149253 5.40521193 -4.01028669 2.77635232 0 0 Z " transform="translate(580,262)" style="fill: #FAE8D4;"/><path d="M0 0 C0.33 0.66 0.66 1.32 1 2 C0.34 2 -0.32 2 -1 2 C-1 2.99 -1 3.98 -1 5 C-2.98 5.33 -4.96 5.66 -7 6 C-7 6.66 -7 7.32 -7 8 C-7.99 8.66 -8.98 9.32 -10 10 C-10.99 9.67 -11.98 9.34 -13 9 C-8.71 6.03 -4.42 3.06 0 0 Z " transform="translate(525,179)" style="fill: #E3E2D7;"/><path d="M0 0 C3.37503669 1.1858237 5.64722731 2.27573689 8 5 C6.63875 4.9690625 6.63875 4.9690625 5.25 4.9375 C2.57327412 4.9889755 0.53011948 5.2215017 -2 6 C-2.33 5.34 -2.66 4.68 -3 4 C-2.01 4 -1.02 4 0 4 C0 2.68 0 1.36 0 0 Z " transform="translate(524,242)" style="fill: #E0805B;"/><path d="M0 0 C0.33 0.99 0.66 1.98 1 3 C1.99 3.33 2.98 3.66 4 4 C3.34 5.65 2.68 7.3 2 9 C1.01 9 0.02 9 -1 9 C-0.67 7.68 -0.34 6.36 0 5 C-1.32 4.01 -2.64 3.02 -4 2 C-2.68 1.34 -1.36 0.68 0 0 Z " transform="translate(479,193)" style="fill: #2F3C48;"/><path d="M0 0 C3.00476343 1.64546569 5.81618469 3.47786141 8.625 5.4375 C8.295 6.0975 7.965 6.7575 7.625 7.4375 C6.635 7.4375 5.645 7.4375 4.625 7.4375 C4.625 6.4475 4.625 5.4575 4.625 4.4375 C0.99076791 2.11159146 -2.14588331 2.27484167 -6.375 2.4375 C-3.08499188 -0.73065597 -3.08499188 -0.73065597 0 0 Z " transform="translate(538.375,172.5625)" style="fill: #E3E4DA;"/><path d="M0 0 C-0.92493788 3.78383679 -1.39371171 5.56693694 -4.625 7.875 C-5.40875 8.24625 -6.1925 8.6175 -7 9 C-7 8.01 -7 7.02 -7 6 C-6.34 6 -5.68 6 -5 6 C-4.87625 5.195625 -4.7525 4.39125 -4.625 3.5625 C-4.41875 2.716875 -4.2125 1.87125 -4 1 C-2 0 -2 0 0 0 Z " transform="translate(577,223)" style="fill: #E98359;"/><path d="M0 0 C-1.44626119 3.81287042 -3.30194812 5.32707177 -7 7 C-9.1640625 6.57421875 -9.1640625 6.57421875 -11 6 C-9.54550599 4.9944239 -8.08627557 3.99569565 -6.625 3 C-5.40683594 2.1646875 -5.40683594 2.1646875 -4.1640625 1.3125 C-2 0 -2 0 0 0 Z " transform="translate(523,199)" style="fill: #E5A682;"/><path d="M0 0 C1.65 0 3.3 0 5 0 C2.8614515 2.1385485 1.86724686 2.42655063 -1 3 C-0.67 2.01 -0.34 1.02 0 0 Z M-3 3 C-2.34 3.33 -1.68 3.66 -1 4 C-6.625 8 -6.625 8 -10 8 C-10 7.34 -10 6.68 -10 6 C-7.69631264 4.93347808 -5.35981813 3.93578995 -3 3 Z " transform="translate(533,193)" style="fill: #F89B66;"/><path d="M0 0 C0.99 0.66 1.98 1.32 3 2 C2.34 2 1.68 2 1 2 C1 2.99 1 3.98 1 5 C-1.64 5.33 -4.28 5.66 -7 6 C-4.74259377 3.66475218 -2.7194239 1.81294927 0 0 Z " transform="translate(566,301)" style="fill: #DDD4D4;"/><path d="M0 0 C4.67239145 2.13206212 8.59287819 4.02502456 12 8 C11.01 8.33 10.02 8.66 9 9 C6.3125 7.1875 6.3125 7.1875 4 5 C4 4.34 4 3.68 4 3 C2.68 2.67 1.36 2.34 0 2 C0 1.34 0 0.68 0 0 Z " transform="translate(502,299)" style="fill: #D7D4CB;"/><path d="M0 0 C-3.96 2.475 -3.96 2.475 -8 5 C-8.99 4.34 -9.98 3.68 -11 3 C-10.34 3 -9.68 3 -9 3 C-9 2.34 -9 1.68 -9 1 C-5.19495213 -0.79682816 -4.29399165 -1.07349791 0 0 Z " transform="translate(581,220)" style="fill: #F6E9EC;"/><path d="M0 0 C2.64 0 5.28 0 8 0 C8 0.66 8 1.32 8 2 C6.02 2 4.04 2 2 2 C2 2.66 2 3.32 2 4 C3.32 4.33 4.64 4.66 6 5 C3 6 3 6 0 6 C0 4.02 0 2.04 0 0 Z " transform="translate(532,247)" style="fill: #E6835D;"/><path d="M0 0 C2.86867231 1.38264837 5.56024032 2.92148553 8.25 4.625 C8.95640625 5.07101563 9.6628125 5.51703125 10.390625 5.9765625 C10.92171875 6.31429687 11.4528125 6.65203125 12 7 C11.01 7.495 11.01 7.495 10 8 C7.6171875 7.00390625 7.6171875 7.00390625 4.875 5.5625 C3.96492187 5.08941406 3.05484375 4.61632812 2.1171875 4.12890625 C1.41851563 3.75636719 0.71984375 3.38382813 0 3 C0 2.01 0 1.02 0 0 Z " transform="translate(512,234)" style="fill: #DC8562;"/><path d="M0 0 C-0.66 1.65 -1.32 3.3 -2 5 C-6.55384615 5.36923077 -6.55384615 5.36923077 -8.8125 3.5 C-9.204375 3.005 -9.59625 2.51 -10 2 C-8.7090864 1.66376204 -7.41723903 1.33110751 -6.125 1 C-5.40570312 0.814375 -4.68640625 0.62875 -3.9453125 0.4375 C-2 0 -2 0 0 0 Z " transform="translate(586,293)" style="fill: #E0DDDB;"/><path d="M0 0 C7.71428571 4 7.71428571 4 9 8 C8.01 8.33 7.02 8.66 6 9 C6 7.68 6 6.36 6 5 C5.195625 4.731875 4.39125 4.46375 3.5625 4.1875 C2.716875 3.795625 1.87125 3.40375 1 3 C0.67 2.01 0.34 1.02 0 0 Z " transform="translate(561,206)" style="fill: #DFA381;"/><path d="M0 0 C1.11375 0.4640625 1.11375 0.4640625 2.25 0.9375 C4.50692176 1.8094925 6.6450153 2.47667007 9 3 C7.6875 4.5 7.6875 4.5 6 6 C5.01 6 4.02 6 3 6 C2.01 4.02 1.02 2.04 0 0 Z " transform="translate(479,287)" style="fill: #EAE4E5;"/><path d="M0 0 C3.96 2.475 3.96 2.475 8 5 C7.01 5.66 6.02 6.32 5 7 C3 6 3 6 0 4 C0 2.68 0 1.36 0 0 Z " transform="translate(479,283)" style="fill: #DBD6D3;"/><path d="M0 0 C-1.125 1.5625 -1.125 1.5625 -3 3 C-6.125 2.8125 -6.125 2.8125 -9 2 C-9.33 1.34 -9.66 0.68 -10 0 C-6.30581799 -1.231394 -3.7943739 -0.64432764 0 0 Z " transform="translate(541,245)" style="fill: #F4E6E9;"/><path d="M0 0 C1.98 0 3.96 0 6 0 C6 0.66 6 1.32 6 2 C8.46326712 3.6446674 8.46326712 3.6446674 11 5 C10.34 5.66 9.68 6.32 9 7 C7.4972763 6.02501855 5.99788037 5.04490611 4.5 4.0625 C3.6646875 3.51722656 2.829375 2.97195312 1.96875 2.41015625 C1.3190625 1.94480469 0.669375 1.47945312 0 1 C0 0.67 0 0.34 0 0 Z " transform="translate(505,228)" style="fill: #F9E7E8;"/><path d="M0 0 C-2.97 1.98 -5.94 3.96 -9 6 C-9 5.01 -9 4.02 -9 3 C-8.01 2.67 -7.02 2.34 -6 2 C-6 1.34 -6 0.68 -6 0 C-2.25 -1.125 -2.25 -1.125 0 0 Z " transform="translate(552,311)" style="fill: #1E3820;"/><path d="M0 0 C4.83256305 0.41421969 6.82679218 2.46413986 10 6 C6.62972148 6 5.93297304 5.50175992 3.3125 3.5625 C2.37857422 2.88380859 2.37857422 2.88380859 1.42578125 2.19140625 C0.95527344 1.79824219 0.48476563 1.40507812 0 1 C0 0.67 0 0.34 0 0 Z " transform="translate(523,282)" style="fill: #DB8C4C;"/><path d="M0 0 C1.32 0.33 2.64 0.66 4 1 C1.03 2.98 -1.94 4.96 -5 7 C-5 6.01 -5 5.02 -5 4 C-4.34 4 -3.68 4 -3 4 C-3 3.34 -3 2.68 -3 2 C-2.01 1.34 -1.02 0.68 0 0 Z " transform="translate(553,278)" style="fill: #D18F57;"/><path d="M0 0 C3.7910119 1.44950455 7.3874638 3.15172566 11 5 C11 5.66 11 6.32 11 7 C5.95904225 6.55520961 3.58884285 4.33845847 0 1 C0 0.67 0 0.34 0 0 Z " transform="translate(527,229)" style="fill: #E0A55E;"/><path d="M0 0 C-2.52788007 2.79872437 -4.20411134 4.45773019 -8 5 C-7.75 3.125 -7.75 3.125 -7 1 C-4.09342573 -1.03460199 -3.47133392 -1.15711131 0 0 Z " transform="translate(490,202)" style="fill: #1F3428;"/><path d="M0 0 C0.99 0.33 1.98 0.66 3 1 C3.33 1.99 3.66 2.98 4 4 C2.02 4.99 2.02 4.99 0 6 C0 5.34 0 4.68 0 4 C-0.99 3.34 -1.98 2.68 -3 2 C-2.01 1.34 -1.02 0.68 0 0 Z M4 0 C4.66 0.66 5.32 1.32 6 2 C5.01 2.495 5.01 2.495 4 3 C4 2.01 4 1.02 4 0 Z " transform="translate(518,167)" style="fill: #303B46;"/><path d="M0 0 C0.66 0.33 1.32 0.66 2 1 C-0.25 3.5625 -0.25 3.5625 -3 6 C-4.32 5.67 -5.64 5.34 -7 5 C-4.69 3.35 -2.38 1.7 0 0 Z " transform="translate(564,273)" style="fill: #F8E3CE;"/><path d="M0 0 C2.4375 1.25 2.4375 1.25 3.4375 4.25 C-0.5625 4.25 -0.5625 4.25 -2.8125 2.25 C-3.39 1.59 -3.9675 0.93 -4.5625 0.25 C-2.5625 -0.75 -2.5625 -0.75 0 0 Z " transform="translate(488.5625,269.75)" style="fill: #ECE8EF;"/><path d="M0 0 C1.65 0 3.3 0 5 0 C5.66 1.98 6.32 3.96 7 6 C2.32307692 4.52307692 2.32307692 4.52307692 0.6875 1.875 C0.460625 1.25625 0.23375 0.6375 0 0 Z " transform="translate(492,218)" style="fill: #F6EAEC;"/><path d="M0 0 C1.31602523 0.61754259 2.62773556 1.24428742 3.9375 1.875 C4.66839844 2.22304687 5.39929688 2.57109375 6.15234375 2.9296875 C8 4 8 4 9 6 C6.03 5.505 6.03 5.505 3 5 C3 4.34 3 3.68 3 3 C2.01 2.67 1.02 2.34 0 2 C0 1.34 0 0.68 0 0 Z " transform="translate(522,227)" style="fill: #FCE7CB;"/><path d="M0 0 C1.98 0 3.96 0 6 0 C5.67 0.99 5.34 1.98 5 3 C2.69 3.33 0.38 3.66 -2 4 C-1.01 3.67 -0.02 3.34 1 3 C0.67 2.01 0.34 1.02 0 0 Z " transform="translate(561,214)" style="fill: #EB9C63;"/><path d="M0 0 C1.65 0 3.3 0 5 0 C2.11912454 2.40072955 -0.56404834 4.47291037 -4 6 C-4 5.01 -4 4.02 -4 3 C-2.68 2.67 -1.36 2.34 0 2 C0 1.34 0 0.68 0 0 Z " transform="translate(516,199)" style="fill: #F5ECEC;"/><path d="M0 0 C0.99 0.66 1.98 1.32 3 2 C-1.75 6 -1.75 6 -4 6 C-3.6875 4.125 -3.6875 4.125 -3 2 C-2.01 1.34 -1.02 0.68 0 0 Z " transform="translate(506,172)" style="fill: #E0E2EE;"/><path d="M0 0 C1.65 0.33 3.3 0.66 5 1 C3.68 2.32 2.36 3.64 1 5 C0.01 4.67 -0.98 4.34 -2 4 C-1.34 2.68 -0.68 1.36 0 0 Z " transform="translate(519,162)" style="fill: #E3E2EF;"/><path d="M0 0 C0 3 0 3 -1.75 4.75 C-4 6 -4 6 -8 5 C-5.36 3.35 -2.72 1.7 0 0 Z " transform="translate(550,283)" style="fill: #F9E4CC;"/><path d="M0 0 C2.31 0.33 4.62 0.66 7 1 C7 1.99 7 2.98 7 4 C7.66 4 8.32 4 9 4 C8.67 4.66 8.34 5.32 8 6 C6.66402348 5.19185349 5.331275 4.37836819 4 3.5625 C3.2575 3.11003906 2.515 2.65757812 1.75 2.19140625 C1.1725 1.79824219 0.595 1.40507812 0 1 C0 0.67 0 0.34 0 0 Z " transform="translate(499,266)" style="fill: #DC8E4E;"/><path d="M0 0 C0.99 0.33 1.98 0.66 3 1 C1.35 2.65 -0.3 4.3 -2 6 C-2 5.34 -2 4.68 -2 4 C-2.66 3.67 -3.32 3.34 -4 3 C-2.1875 1.4375 -2.1875 1.4375 0 0 Z " transform="translate(504,193)" style="fill: #EDEAE4;"/><path d="M0 0 C4.46840411 0.49648935 5.68987756 0.68987756 9 4 C5.7 3.67 2.4 3.34 -1 3 C-0.67 2.01 -0.34 1.02 0 0 Z " transform="translate(534,170)" style="fill: #20372A;"/><path d="M0 0 C0.66 0.66 1.32 1.32 2 2 C-0.31 3.32 -2.62 4.64 -5 6 C-4.67 4.35 -4.34 2.7 -4 1 C-2.125 0.375 -2.125 0.375 0 0 Z " transform="translate(544,297)" style="fill: #E8E5EF;"/><path d="M0 0 C-0.66 1.32 -1.32 2.64 -2 4 C-3.65 2.68 -5.3 1.36 -7 0 C-4.3333581 -1.33332095 -2.83319697 -0.67102033 0 0 Z " transform="translate(514,286)" style="fill: #EDE7F1;"/><path d="M0 0 C0.33 1.32 0.66 2.64 1 4 C-0.8125 5.0625 -0.8125 5.0625 -3 6 C-3.99 5.67 -4.98 5.34 -6 5 C-4.02 3.35 -2.04 1.7 0 0 Z " transform="translate(604,275)" style="fill: #D7D4C8;"/><path d="M0 0 C0.66 0.33 1.32 0.66 2 1 C1.67 1.99 1.34 2.98 1 4 C-0.84765625 4.73046875 -0.84765625 4.73046875 -3.0625 5.1875 C-3.79597656 5.34605469 -4.52945313 5.50460938 -5.28515625 5.66796875 C-6.13400391 5.83232422 -6.13400391 5.83232422 -7 6 C-4.74259377 3.66475218 -2.7194239 1.81294927 0 0 Z " transform="translate(554,237)" style="fill: #D88C6C;"/><path d="M0 0 C3.96 2.475 3.96 2.475 8 5 C6.02 5.99 6.02 5.99 4 7 C4 6.01 4 5.02 4 4 C2.68 3.34 1.36 2.68 0 2 C0 1.34 0 0.68 0 0 Z " transform="translate(563,189)" style="fill: #EAEAE4;"/><path d="M0 0 C1.32 0.33 2.64 0.66 4 1 C-1.75 6 -1.75 6 -4 6 C-4 5.34 -4 4.68 -4 4 C-3.34 4 -2.68 4 -2 4 C-1.34 2.68 -0.68 1.36 0 0 Z " transform="translate(525,193)" style="fill: #F6EBE7;"/><path d="M0 0 C0.66 0.33 1.32 0.66 2 1 C1.34 2.65 0.68 4.3 0 6 C-1.32 5.67 -2.64 5.34 -4 5 C-3 2 -3 2 0 0 Z " transform="translate(512,171)" style="fill: #343E47;"/><path d="M0 0 C1.32 0.33 2.64 0.66 4 1 C3.01 2.485 3.01 2.485 2 4 C0.35 3.67 -1.3 3.34 -3 3 C-2.01 2.67 -1.02 2.34 0 2 C0 1.34 0 0.68 0 0 Z " transform="translate(554,305)" style="fill: #172C23;"/><path d="M0 0 C1.32 0.99 2.64 1.98 4 3 C3.01 3.99 2.02 4.98 1 6 C0.34 5.34 -0.32 4.68 -1 4 C-0.625 1.875 -0.625 1.875 0 0 Z " transform="translate(473,279)" style="fill: #E2DCDC;"/><path d="M0 0 C1.98 0.99 3.96 1.98 6 3 C5.67 3.99 5.34 4.98 5 6 C2.5 4.6875 2.5 4.6875 0 3 C0 2.01 0 1.02 0 0 Z " transform="translate(492,274)" style="fill: #EAE6EE;"/><path d="M0 0 C1.98 0 3.96 0 6 0 C6.33 0.99 6.66 1.98 7 3 C4.36 3 1.72 3 -1 3 C-0.67 2.01 -0.34 1.02 0 0 Z " transform="translate(533,168)" style="fill: #2B2D49;"/><path d="M0 0 C0.33 1.32 0.66 2.64 1 4 C-2.3 3.34 -5.6 2.68 -9 2 C-9 1.67 -9 1.34 -9 1 C-5.94152152 0.45627049 -3.11227195 0 0 0 Z " transform="translate(544,156)" style="fill: #C7C6D0;"/></svg>